<?xml version="1.0" standalone="no"?>
<!DOCTYPE svg PUBLIC "-//W3C//DTD SVG 20010904//EN"
 "http://www.w3.org/TR/2001/REC-SVG-20010904/DTD/svg10.dtd">
<svg version="1.0" xmlns="http://www.w3.org/2000/svg"
 width="631.000000pt" height="154.000000pt" viewBox="0 0 631.000000 154.000000"
 preserveAspectRatio="xMidYMid meet">

<g transform="translate(0.000000,154.000000) scale(0.100000,-0.100000)"
fill="#000000" stroke="none">
<path d="M2920 1441 c41 -15 91 -36 110 -47 l35 -19 -70 -3 c-38 -2 -130 4
-205 13 -296 34 -348 37 -615 31 -410 -9 -612 -21 -666 -40 -59 -21 -83 -47
-77 -81 3 -15 1 -25 -6 -25 -6 0 -74 20 -150 45 -77 25 -149 45 -160 45 -12 0
-40 -13 -63 -29 -53 -35 -218 -89 -483 -155 l-207 -52 9 -24 c13 -35 3 -89
-23 -116 -23 -24 -22 -25 21 -36 8 -3 -20 -24 -62 -48 l-77 -43 15 -30 c32
-60 -13 -147 -84 -166 -20 -6 -63 -11 -94 -12 -32 -1 -58 -4 -58 -6 0 -7 128
-62 170 -73 21 -6 42 -15 45 -20 3 -5 -4 -46 -16 -91 -27 -102 -21 -118 57
-148 85 -32 130 -36 223 -16 l82 18 57 -29 c45 -23 73 -30 135 -33 71 -3 83
-1 152 32 65 31 79 43 110 91 45 71 56 77 119 60 109 -29 602 -52 1936 -91
144 -4 239 7 306 36 l41 19 234 -48 c129 -27 324 -67 434 -90 145 -31 228 -43
300 -45 87 -2 129 -10 325 -63 306 -84 431 -113 524 -123 l79 -8 39 44 c35 39
50 48 126 70 48 14 112 36 142 48 42 16 82 22 169 25 92 3 117 8 131 22 24 24
115 58 225 84 99 24 98 18 0 57 l-30 12 45 8 c25 4 64 8 88 8 24 1 42 6 42 12
0 7 -31 44 -68 83 -71 75 -112 144 -112 188 0 15 11 40 25 57 l26 30 -502 165
c-560 185 -558 185 -1169 285 -570 94 -1599 252 -1638 251 -9 -1 17 -14 58
-29z m274 -66 c17 -17 30 -20 21 -5 -7 11 38 14 49 3 3 -4 25 -7 49 -8 23 -1
57 -6 75 -10 31 -6 33 -9 27 -38 -11 -49 -49 -127 -62 -127 -7 0 -10 -7 -7
-15 6 -14 -52 -105 -68 -105 -4 0 -8 -9 -8 -20 0 -11 -24 -43 -53 -72 -53 -53
-147 -125 -147 -113 0 21 24 95 31 95 4 0 7 10 7 23 -3 56 2 79 17 73 8 -3 15
-1 15 4 0 6 -4 10 -10 10 -5 0 -10 9 -10 20 0 11 5 20 11 20 6 0 8 7 5 16 -3
9 -1 46 4 83 19 115 17 111 53 112 l32 0 -24 17 c-14 9 -34 25 -45 34 l-21 17
22 1 c12 0 28 -7 37 -15z m-651 -22 l377 -17 0 -36 c0 -54 -27 -147 -60 -209
-17 -30 -28 -56 -25 -59 9 -9 160 84 212 132 29 26 53 46 53 43 0 -3 -11 -83
-25 -178 -14 -95 -25 -184 -23 -197 3 -24 5 -23 68 24 36 26 115 97 175 158
99 100 115 121 160 214 38 79 54 102 69 102 22 0 402 -67 746 -131 295 -55
630 -119 659 -126 52 -13 115 -225 114 -388 0 -81 -5 -115 -26 -180 -47 -143
-167 -315 -219 -315 -11 0 -81 16 -156 36 -121 31 -154 36 -277 38 -121 2
-172 9 -375 50 -129 26 -300 63 -379 82 -168 40 -183 41 -245 13 -77 -34 -231
-41 -546 -24 -282 15 -874 39 -1263 51 -119 4 -219 10 -222 14 -2 4 4 39 15
79 11 39 20 82 20 96 0 14 2 25 5 25 3 0 29 -19 58 -41 95 -76 173 -95 104
-26 -45 45 -92 146 -122 262 -19 76 -19 195 0 282 9 37 18 78 20 90 5 21 10
22 53 17 l47 -6 -32 27 c-18 14 -33 32 -33 40 0 23 89 45 220 55 279 22 421
23 853 3z m567 -36 c0 -29 -26 -67 -45 -67 -17 0 -18 -2 -5 -10 22 -15 -64
-93 -94 -85 -12 3 -15 2 -8 -1 17 -8 5 -24 -20 -24 -16 0 -19 4 -14 23 3 12 9
40 12 62 4 22 13 46 22 53 10 7 11 12 4 12 -7 0 -12 11 -12 25 0 25 1 25 80
25 59 0 80 -3 80 -13z m-1946 -23 c9 -3 13 -10 10 -15 -3 -5 0 -9 5 -9 6 0 11
5 11 11 0 7 7 8 18 4 9 -4 44 -11 77 -16 33 -6 61 -12 64 -14 2 -3 3 -73 2
-158 -1 -84 2 -165 8 -179 7 -19 7 -28 -2 -32 -9 -5 -9 -7 0 -12 7 -3 17 -22
23 -42 7 -20 21 -56 32 -80 11 -24 18 -46 15 -49 -9 -8 -116 97 -147 145 -16
24 -26 50 -23 58 3 8 0 14 -6 14 -6 0 -18 14 -26 31 -13 24 -14 34 -4 45 9 11
8 14 -4 14 -9 0 -21 9 -27 21 -16 30 -24 16 -12 -20 7 -19 7 -31 1 -31 -5 0
-9 -4 -9 -10 0 -5 7 -10 16 -10 8 0 22 -16 30 -35 17 -41 17 -48 4 -40 -5 3
-10 1 -10 -5 0 -6 8 -10 18 -8 11 2 17 -3 16 -14 -1 -10 2 -18 6 -18 5 0 18
-16 31 -36 18 -30 19 -38 8 -45 -11 -7 -11 -9 3 -9 12 0 19 -11 24 -35 3 -20
4 -39 0 -42 -3 -3 -1 -12 5 -19 6 -8 8 -22 4 -31 -4 -10 -8 -40 -10 -68 -3
-61 -14 -93 -26 -74 -4 8 -3 16 3 20 8 5 6 12 -4 23 -15 14 -35 105 -30 133 2
6 -2 14 -8 18 -12 7 -14 41 -2 48 4 2 1 2 -5 1 -7 -2 -13 5 -13 14 0 23 -71
94 -132 135 -27 16 -48 34 -48 39 0 5 -6 8 -12 7 -28 -3 -37 2 -32 19 4 12 3
13 -3 4 -12 -15 -71 2 -92 27 -10 12 -15 13 -18 4 -6 -16 -49 -17 -58 -3 -5 8
-11 7 -21 -1 -11 -9 -21 -9 -39 -1 -21 10 -29 6 -77 -39 -29 -27 -53 -56 -53
-66 0 -9 -6 -18 -12 -20 -7 -3 -13 0 -13 6 0 6 -3 10 -7 10 -17 -3 -33 1 -32
9 3 18 -2 26 -9 14 -5 -7 -16 -10 -25 -6 -9 3 -14 11 -10 17 4 7 9 52 11 102
3 87 15 116 37 94 6 -6 5 -13 -5 -20 -13 -8 -13 -11 3 -20 9 -5 17 -21 17 -34
0 -14 5 -25 10 -25 6 0 10 30 10 71 0 68 1 70 23 63 12 -3 18 -3 14 2 -10 11
73 35 97 28 10 -4 16 -2 13 3 -8 13 66 35 89 27 16 -5 16 -4 4 5 -9 6 -10 11
-3 11 6 0 19 3 29 7 14 5 16 1 12 -25 -2 -18 -1 -32 2 -32 13 0 69 -100 64
-115 -4 -9 1 -13 15 -12 15 1 20 6 15 17 -23 56 -31 99 -21 109 8 8 8 11 -1
11 -13 0 -16 32 -5 44 4 4 8 15 8 24 0 11 7 16 18 14 9 -2 17 2 17 7 0 14 79
49 112 50 14 1 33 -2 42 -5z m3998 -270 c28 -5 35 -10 31 -23 -4 -13 -3 -14 6
-1 8 12 16 12 43 3 18 -6 52 -14 75 -18 24 -4 45 -10 48 -15 3 -4 25 -11 50
-14 24 -4 47 -11 49 -15 3 -4 18 -8 33 -9 15 0 42 -6 58 -13 17 -7 37 -13 45
-14 8 -1 31 -9 51 -18 20 -8 55 -18 77 -22 49 -8 62 -23 37 -42 -11 -7 -13
-13 -7 -13 7 0 12 -11 12 -25 0 -14 -5 -25 -11 -25 -8 0 -9 -4 0 -13 6 -8 8
-16 5 -19 -5 -5 -10 -38 -13 -80 0 -9 -8 -23 -16 -32 -9 -9 -11 -17 -5 -21 6
-4 6 -15 0 -31 -6 -14 -10 -38 -10 -54 0 -17 -9 -38 -22 -50 -12 -11 -16 -20
-10 -20 16 0 15 -33 0 -48 -8 -8 -8 -12 -1 -12 6 0 13 7 17 15 3 8 13 15 23
15 13 0 14 3 6 11 -9 9 -8 20 4 43 9 17 21 34 27 38 6 4 7 10 4 14 -4 3 3 25
14 48 12 22 22 44 23 47 1 25 51 109 64 109 12 0 13 2 3 9 -11 6 -10 15 4 44
23 48 44 47 69 -5 16 -34 20 -62 20 -151 0 -94 -2 -110 -19 -122 -10 -8 -15
-19 -11 -25 8 -12 -13 -70 -25 -70 -4 0 -10 -12 -13 -27 -9 -44 -67 -103 -102
-104 -16 -1 -39 -5 -50 -10 -21 -8 -134 -24 -149 -20 -4 1 -13 -2 -20 -7 -6
-6 -27 -13 -46 -17 -31 -7 -33 -6 -21 9 19 23 5 33 -17 13 -34 -31 -34 -18 -1
25 18 22 28 39 23 37 -13 -5 -125 -102 -169 -146 -18 -18 -37 -33 -44 -33 -6
0 -11 -6 -11 -14 0 -17 -42 -28 -75 -20 -30 8 -31 10 -3 54 12 19 22 40 23 45
3 40 19 75 33 76 11 0 12 2 5 6 -14 5 -18 35 -7 46 4 4 8 23 10 44 2 21 11 44
21 52 12 9 14 15 6 18 -8 3 -9 12 -5 26 6 18 8 96 3 170 -1 11 -9 17 -23 17
-16 0 -19 -3 -11 -11 9 -9 7 -24 -6 -58 -33 -86 -46 -111 -60 -111 -7 0 -11
-6 -8 -14 10 -26 -111 -176 -142 -176 -7 0 -9 -5 -6 -11 4 -6 -2 -13 -14 -16
-12 -3 -21 -9 -21 -14 0 -14 -90 -51 -113 -46 l-22 4 22 8 c13 4 20 11 17 16
-3 5 12 32 34 61 21 29 41 61 45 70 4 12 12 15 24 11 16 -6 16 -5 5 9 -11 14
-11 22 3 47 8 17 20 31 26 31 6 0 9 7 5 15 -8 21 13 75 30 75 15 0 19 16 5 22
-11 4 19 130 33 140 7 5 7 8 -1 8 -15 0 -17 36 -3 45 7 4 6 13 -1 26 -7 15 -7
24 1 34 7 9 8 15 0 20 -13 8 -13 45 0 45 6 0 10 5 10 10 0 6 -5 9 -12 8 -8 -2
-15 17 -19 52 -4 30 -8 60 -9 65 -6 27 4 30 72 19z m-4251 -94 c60 -12 154
-64 212 -119 42 -39 88 -121 107 -191 15 -55 28 -160 20 -160 -3 0 -37 13 -75
29 -39 16 -87 33 -107 36 -35 7 -38 10 -38 40 0 22 10 45 27 66 23 27 24 31 7
25 -18 -5 -20 -2 -16 29 8 64 -15 36 -37 -47 -42 -159 -148 -335 -217 -364
-32 -13 -42 -13 -88 0 -29 9 -63 28 -79 44 l-28 29 20 79 c12 44 26 133 32
199 6 66 13 143 15 172 6 58 36 111 74 130 30 15 99 16 171 3z m-326 -101 c53
-25 53 -18 27 -226 -18 -139 -19 -144 -52 -179 -60 -61 -113 -87 -196 -92 -89
-6 -124 11 -124 59 0 64 94 271 174 383 57 80 93 91 171 55z m4626 -516 c-6
-26 -24 -85 -38 -131 -24 -73 -29 -83 -47 -78 -11 3 -56 13 -100 22 l-79 17
61 29 c44 21 81 50 131 104 39 42 71 81 71 87 0 6 3 8 6 4 4 -3 1 -28 -5 -54z"/>
<path d="M3200 1119 c0 -5 5 -7 10 -4 6 3 10 8 10 11 0 2 -4 4 -10 4 -5 0 -10
-5 -10 -11z"/>
<path d="M3270 1119 c0 -5 5 -7 10 -4 6 3 10 8 10 11 0 2 -4 4 -10 4 -5 0 -10
-5 -10 -11z"/>
<path d="M3235 1090 c3 -5 8 -10 11 -10 2 0 4 5 4 10 0 6 -5 10 -11 10 -5 0
-7 -4 -4 -10z"/>
<path d="M3200 1059 c0 -5 5 -7 10 -4 6 3 10 8 10 11 0 2 -4 4 -10 4 -5 0 -10
-5 -10 -11z"/>
<path d="M3160 1030 c0 -5 5 -10 10 -10 6 0 10 5 10 10 0 6 -4 10 -10 10 -5 0
-10 -4 -10 -10z"/>
<path d="M3230 1030 c0 -5 5 -10 10 -10 6 0 10 5 10 10 0 6 -4 10 -10 10 -5 0
-10 -4 -10 -10z"/>
<path d="M3200 999 c0 -5 5 -7 10 -4 6 3 10 8 10 11 0 2 -4 4 -10 4 -5 0 -10
-5 -10 -11z"/>
<path d="M3160 970 c0 -5 5 -10 10 -10 6 0 10 5 10 10 0 6 -4 10 -10 10 -5 0
-10 -4 -10 -10z"/>
<path d="M3090 910 c0 -5 5 -10 10 -10 6 0 10 5 10 10 0 6 -4 10 -10 10 -5 0
-10 -4 -10 -10z"/>
<path d="M2190 1249 c0 -3 33 -9 73 -13 95 -8 248 -41 300 -64 23 -11 77 -52
120 -91 42 -40 77 -70 77 -67 0 12 -66 110 -92 138 -29 30 -84 60 -143 78 -42
13 -335 29 -335 19z"/>
<path d="M2070 1224 c-14 -2 -65 -13 -115 -25 -84 -19 -96 -19 -177 -6 -49 8
-88 13 -88 11 0 -2 23 -15 50 -29 28 -14 50 -27 50 -30 0 -11 -49 -29 -114
-40 -57 -11 -66 -15 -47 -21 23 -7 24 -8 5 -15 -10 -4 -33 -8 -51 -8 -17 -1
-34 -5 -37 -10 -8 -12 44 -21 118 -21 91 0 100 -13 35 -45 -29 -15 -81 -38
-114 -51 l-60 -23 45 0 c25 0 77 8 115 19 39 10 70 17 70 16 0 0 22 -34 49
-74 57 -86 193 -217 254 -244 78 -35 276 -34 390 3 50 16 34 19 -43 8 -87 -12
-192 -12 -268 0 -44 8 -71 20 -116 55 -104 80 -211 218 -211 272 0 27 43 67
105 97 95 47 93 48 87 -38 -6 -93 12 -146 70 -205 89 -93 237 -122 344 -67 71
36 139 114 154 177 7 27 15 50 20 50 11 0 57 -49 93 -99 39 -54 56 -62 51 -24
-5 47 -32 111 -61 148 -58 74 -221 166 -352 200 -64 16 -205 27 -251 19z m215
-176 c25 -12 45 -26 45 -30 0 -11 -29 -68 -42 -85 -14 -18 -108 24 -108 48 0
28 32 89 47 89 7 0 33 -10 58 -22z m200 -119 c4 -11 4 -23 1 -27 -10 -9 -39
25 -32 37 11 17 24 13 31 -10z m-20 -49 c10 -11 14 -20 8 -20 -5 0 -18 9 -28
20 -10 11 -14 20 -8 20 5 0 18 -9 28 -20z m-23 -17 c10 -9 18 -22 18 -30 0
-23 -25 -14 -43 17 -20 34 -6 41 25 13z m-37 -33 c8 -16 15 -31 15 -33 0 -11
-84 -37 -120 -37 -31 0 -40 4 -40 18 0 28 13 39 55 51 22 6 47 15 55 21 20 13
17 14 35 -20z m-244 -3 c-1 -4 -1 -12 -1 -19 0 -6 -9 -3 -20 7 -26 23 -26 36
1 27 11 -5 20 -11 20 -15z m45 -13 c-3 -9 -6 -20 -6 -25 0 -5 -4 -9 -10 -9 -5
0 -10 11 -10 25 0 16 6 25 16 25 11 0 14 -5 10 -16z m44 -20 c0 -15 -6 -24
-15 -24 -15 0 -21 40 -9 53 12 11 24 -3 24 -29z"/>
<path d="M3990 1136 c-98 -35 -179 -78 -268 -146 -77 -58 -124 -103 -72 -69
186 122 251 156 385 205 73 27 84 33 55 33 -19 0 -64 -11 -100 -23z"/>
<path d="M4092 1086 c-125 -32 -277 -137 -403 -278 -55 -62 -59 -101 -5 -50
35 33 115 92 126 92 4 0 7 -19 8 -42 8 -204 314 -293 489 -143 53 45 79 101
92 193 5 41 12 76 14 79 17 16 137 -90 137 -121 -1 -32 -18 -57 -105 -155
-124 -140 -209 -172 -417 -154 -73 6 -104 5 -97 -2 6 -6 81 -11 177 -13 l167
-3 80 40 c82 41 137 85 191 155 35 44 70 54 209 56 l80 2 -70 19 c-38 11 -77
23 -85 26 -22 9 33 20 110 23 l65 1 -40 15 c-64 24 -175 76 -175 84 0 3 48 17
108 30 59 12 110 26 114 29 4 3 -37 6 -90 6 -108 0 -212 12 -212 24 0 5 28 14
63 21 l62 13 -45 9 c-25 5 -88 19 -140 30 -121 26 -333 33 -408 14z m18 -176
c22 -11 40 -25 40 -31 0 -22 -41 -89 -56 -89 -26 0 -94 40 -94 55 0 8 8 30 17
50 19 41 37 44 93 15z m196 -118 c-4 -3 -11 -1 -17 5 -8 8 -7 18 3 34 l13 24
3 -28 c2 -16 1 -31 -2 -35z m-21 -42 c10 -11 15 -23 12 -27 -8 -7 -47 25 -47
39 0 14 16 9 35 -12z m-15 -62 c0 -14 -67 -58 -98 -64 -30 -6 -32 -5 -32 24 0
26 6 34 35 47 19 9 40 24 46 32 11 13 15 11 31 -9 9 -13 18 -26 18 -30z m-256
-4 c19 -7 22 -54 3 -54 -19 0 -37 21 -37 42 0 19 8 22 34 12z m64 -31 c-4 -34
-28 -43 -28 -10 0 25 7 37 22 37 5 0 8 -12 6 -27z m42 -9 c0 -24 -4 -34 -12
-32 -24 8 -22 68 2 68 5 0 10 -16 10 -36z"/>
<path d="M1730 741 c0 -12 58 -61 73 -61 6 0 -4 16 -23 35 -34 35 -50 43 -50
26z"/>
<path d="M1790 735 c0 -7 92 -75 103 -75 5 0 -13 18 -41 40 -47 38 -62 46 -62
35z"/>
<path d="M2655 713 c-16 -9 -41 -24 -54 -35 -14 -10 -27 -14 -30 -9 -4 5 -28
-7 -56 -27 -35 -26 -44 -38 -32 -40 22 -4 121 50 172 93 44 38 44 42 0 18z"/>
<path d="M4535 625 c-74 -75 -101 -114 -64 -94 54 28 147 135 137 157 -2 4
-34 -24 -73 -63z"/>
<path d="M4682 600 c-38 -36 -55 -56 -42 -53 28 7 114 86 109 100 -2 6 -32
-15 -67 -47z"/>
<path d="M3650 643 c0 -6 41 -48 91 -94 63 -57 89 -76 84 -60 -6 20 -5 22 13
12 85 -45 -20 41 -163 135 -14 9 -25 12 -25 7z"/>
<path d="M4725 570 c-21 -22 -34 -40 -27 -40 18 0 75 55 71 69 -3 7 -20 -5
-44 -29z"/>
<path d="M855 1120 c3 -5 8 -10 11 -10 2 0 4 5 4 10 0 6 -5 10 -11 10 -5 0 -7
-4 -4 -10z"/>
<path d="M1070 1119 c0 -5 5 -7 10 -4 6 3 10 8 10 11 0 2 -4 4 -10 4 -5 0 -10
-5 -10 -11z"/>
<path d="M1140 1119 c0 -5 5 -7 10 -4 6 3 10 8 10 11 0 2 -4 4 -10 4 -5 0 -10
-5 -10 -11z"/>
<path d="M1210 1119 c0 -5 5 -7 10 -4 6 3 10 8 10 11 0 2 -4 4 -10 4 -5 0 -10
-5 -10 -11z"/>
<path d="M750 1089 c0 -5 5 -7 10 -4 6 3 10 8 10 11 0 2 -4 4 -10 4 -5 0 -10
-5 -10 -11z"/>
<path d="M820 1089 c0 -5 5 -7 10 -4 6 3 10 8 10 11 0 2 -4 4 -10 4 -5 0 -10
-5 -10 -11z"/>
<path d="M890 1089 c0 -5 5 -7 10 -4 6 3 10 8 10 11 0 2 -4 4 -10 4 -5 0 -10
-5 -10 -11z"/>
<path d="M1105 1090 c3 -5 8 -10 11 -10 2 0 4 5 4 10 0 6 -5 10 -11 10 -5 0
-7 -4 -4 -10z"/>
<path d="M1175 1090 c3 -5 8 -10 11 -10 2 0 4 5 4 10 0 6 -5 10 -11 10 -5 0
-7 -4 -4 -10z"/>
<path d="M1245 1090 c3 -5 8 -10 11 -10 2 0 4 5 4 10 0 6 -5 10 -11 10 -5 0
-7 -4 -4 -10z"/>
<path d="M1315 1090 c3 -5 8 -10 11 -10 2 0 4 5 4 10 0 6 -5 10 -11 10 -5 0
-7 -4 -4 -10z"/>
<path d="M640 1060 c0 -5 5 -10 10 -10 6 0 10 5 10 10 0 6 -4 10 -10 10 -5 0
-10 -4 -10 -10z"/>
<path d="M710 1060 c0 -5 5 -10 10 -10 6 0 10 5 10 10 0 6 -4 10 -10 10 -5 0
-10 -4 -10 -10z"/>
<path d="M785 1060 c3 -5 8 -10 11 -10 2 0 4 5 4 10 0 6 -5 10 -11 10 -5 0 -7
-4 -4 -10z"/>
<path d="M855 1060 c3 -5 8 -10 11 -10 2 0 4 5 4 10 0 6 -5 10 -11 10 -5 0 -7
-4 -4 -10z"/>
<path d="M925 1060 c3 -5 8 -10 11 -10 2 0 4 5 4 10 0 6 -5 10 -11 10 -5 0 -7
-4 -4 -10z"/>
<path d="M1140 1059 c0 -5 5 -7 10 -4 6 3 10 8 10 11 0 2 -4 4 -10 4 -5 0 -10
-5 -10 -11z"/>
<path d="M1210 1059 c0 -5 5 -7 10 -4 6 3 10 8 10 11 0 2 -4 4 -10 4 -5 0 -10
-5 -10 -11z"/>
<path d="M1280 1059 c0 -5 5 -7 10 -4 6 3 10 8 10 11 0 2 -4 4 -10 4 -5 0 -10
-5 -10 -11z"/>
<path d="M820 1029 c0 -5 5 -7 10 -4 6 3 10 8 10 11 0 2 -4 4 -10 4 -5 0 -10
-5 -10 -11z"/>
<path d="M890 1029 c0 -5 5 -7 10 -4 6 3 10 8 10 11 0 2 -4 4 -10 4 -5 0 -10
-5 -10 -11z"/>
<path d="M1030 1030 c0 -5 5 -10 10 -10 6 0 10 5 10 10 0 6 -4 10 -10 10 -5 0
-10 -4 -10 -10z"/>
<path d="M1100 1030 c0 -5 5 -10 10 -10 6 0 10 5 10 10 0 6 -4 10 -10 10 -5 0
-10 -4 -10 -10z"/>
<path d="M1245 1030 c3 -5 8 -10 11 -10 2 0 4 5 4 10 0 6 -5 10 -11 10 -5 0
-7 -4 -4 -10z"/>
<path d="M570 1000 c0 -5 5 -10 10 -10 6 0 10 5 10 10 0 6 -4 10 -10 10 -5 0
-10 -4 -10 -10z"/>
<path d="M640 1000 c0 -5 5 -10 10 -10 6 0 10 5 10 10 0 6 -4 10 -10 10 -5 0
-10 -4 -10 -10z"/>
<path d="M710 1000 c0 -5 5 -10 10 -10 6 0 10 5 10 10 0 6 -4 10 -10 10 -5 0
-10 -4 -10 -10z"/>
<path d="M780 1000 c0 -5 5 -10 10 -10 6 0 10 5 10 10 0 6 -4 10 -10 10 -5 0
-10 -4 -10 -10z"/>
<path d="M850 1000 c0 -5 5 -10 10 -10 6 0 10 5 10 10 0 6 -4 10 -10 10 -5 0
-10 -4 -10 -10z"/>
<path d="M925 1000 c3 -5 8 -10 11 -10 2 0 4 5 4 10 0 6 -5 10 -11 10 -5 0 -7
-4 -4 -10z"/>
<path d="M1140 999 c0 -5 5 -7 10 -4 6 3 10 8 10 11 0 2 -4 4 -10 4 -5 0 -10
-5 -10 -11z"/>
<path d="M1280 1000 c0 -5 5 -10 10 -10 6 0 10 5 10 10 0 6 -4 10 -10 10 -5 0
-10 -4 -10 -10z"/>
<path d="M605 970 c-3 -5 -1 -10 4 -10 6 0 11 5 11 10 0 6 -2 10 -4 10 -3 0
-8 -4 -11 -10z"/>
<path d="M960 970 c0 -5 5 -10 10 -10 6 0 10 5 10 10 0 6 -4 10 -10 10 -5 0
-10 -4 -10 -10z"/>
<path d="M1030 970 c0 -5 5 -10 10 -10 6 0 10 5 10 10 0 6 -4 10 -10 10 -5 0
-10 -4 -10 -10z"/>
<path d="M1100 970 c0 -5 5 -10 10 -10 6 0 10 5 10 10 0 6 -4 10 -10 10 -5 0
-10 -4 -10 -10z"/>
<path d="M1245 970 c-3 -5 -1 -10 4 -10 6 0 11 5 11 10 0 6 -2 10 -4 10 -3 0
-8 -4 -11 -10z"/>
<path d="M570 940 c0 -5 5 -10 10 -10 6 0 10 5 10 10 0 6 -4 10 -10 10 -5 0
-10 -4 -10 -10z"/>
<path d="M640 940 c0 -5 5 -10 10 -10 6 0 10 5 10 10 0 6 -4 10 -10 10 -5 0
-10 -4 -10 -10z"/>
<path d="M1280 940 c0 -5 5 -10 10 -10 6 0 10 5 10 10 0 6 -4 10 -10 10 -5 0
-10 -4 -10 -10z"/>
<path d="M605 910 c-3 -5 -1 -10 4 -10 6 0 11 5 11 10 0 6 -2 10 -4 10 -3 0
-8 -4 -11 -10z"/>
<path d="M1105 910 c-3 -5 -1 -10 4 -10 6 0 11 5 11 10 0 6 -2 10 -4 10 -3 0
-8 -4 -11 -10z"/>
<path d="M1175 910 c-3 -5 -1 -10 4 -10 6 0 11 5 11 10 0 6 -2 10 -4 10 -3 0
-8 -4 -11 -10z"/>
<path d="M1315 910 c-3 -5 -1 -10 4 -10 6 0 11 5 11 10 0 6 -2 10 -4 10 -3 0
-8 -4 -11 -10z"/>
<path d="M1140 880 c0 -5 5 -10 11 -10 5 0 7 5 4 10 -3 6 -8 10 -11 10 -2 0
-4 -4 -4 -10z"/>
<path d="M1280 880 c0 -5 5 -10 11 -10 5 0 7 5 4 10 -3 6 -8 10 -11 10 -2 0
-4 -4 -4 -10z"/>
<path d="M1315 850 c-3 -5 -1 -10 4 -10 6 0 11 5 11 10 0 6 -2 10 -4 10 -3 0
-8 -4 -11 -10z"/>
<path d="M1280 569 c0 -5 5 -7 10 -4 6 3 10 8 10 11 0 2 -4 4 -10 4 -5 0 -10
-5 -10 -11z"/>
<path d="M5150 970 c0 -5 5 -10 10 -10 6 0 10 5 10 10 0 6 -4 10 -10 10 -5 0
-10 -4 -10 -10z"/>
<path d="M5220 970 c0 -5 5 -10 10 -10 6 0 10 5 10 10 0 6 -4 10 -10 10 -5 0
-10 -4 -10 -10z"/>
<path d="M5295 970 c-3 -5 -1 -10 4 -10 6 0 11 5 11 10 0 6 -2 10 -4 10 -3 0
-8 -4 -11 -10z"/>
<path d="M5330 940 c0 -5 5 -10 11 -10 5 0 7 5 4 10 -3 6 -8 10 -11 10 -2 0
-4 -4 -4 -10z"/>
<path d="M5400 940 c0 -5 5 -10 11 -10 5 0 7 5 4 10 -3 6 -8 10 -11 10 -2 0
-4 -4 -4 -10z"/>
<path d="M5150 910 c0 -5 5 -10 10 -10 6 0 10 5 10 10 0 6 -4 10 -10 10 -5 0
-10 -4 -10 -10z"/>
<path d="M5225 910 c-3 -5 -1 -10 4 -10 6 0 11 5 11 10 0 6 -2 10 -4 10 -3 0
-8 -4 -11 -10z"/>
<path d="M5295 910 c-3 -5 -1 -10 4 -10 6 0 11 5 11 10 0 6 -2 10 -4 10 -3 0
-8 -4 -11 -10z"/>
<path d="M5365 910 c-3 -5 -1 -10 4 -10 6 0 11 5 11 10 0 6 -2 10 -4 10 -3 0
-8 -4 -11 -10z"/>
<path d="M5435 910 c-3 -5 -1 -10 4 -10 6 0 11 5 11 10 0 6 -2 10 -4 10 -3 0
-8 -4 -11 -10z"/>
<path d="M5190 880 c0 -5 5 -10 11 -10 5 0 7 5 4 10 -3 6 -8 10 -11 10 -2 0
-4 -4 -4 -10z"/>
<path d="M5260 880 c0 -5 5 -10 11 -10 5 0 7 5 4 10 -3 6 -8 10 -11 10 -2 0
-4 -4 -4 -10z"/>
<path d="M5330 880 c0 -5 5 -10 11 -10 5 0 7 5 4 10 -3 6 -8 10 -11 10 -2 0
-4 -4 -4 -10z"/>
<path d="M5400 880 c0 -5 5 -10 11 -10 5 0 7 5 4 10 -3 6 -8 10 -11 10 -2 0
-4 -4 -4 -10z"/>
<path d="M5435 850 c-3 -5 -1 -10 4 -10 6 0 11 5 11 10 0 6 -2 10 -4 10 -3 0
-8 -4 -11 -10z"/>
<path d="M5580 850 c0 -5 5 -10 11 -10 5 0 7 5 4 10 -3 6 -8 10 -11 10 -2 0
-4 -4 -4 -10z"/>
<path d="M5650 850 c0 -5 5 -10 11 -10 5 0 7 5 4 10 -3 6 -8 10 -11 10 -2 0
-4 -4 -4 -10z"/>
<path d="M5290 659 c0 -5 5 -7 10 -4 6 3 10 8 10 11 0 2 -4 4 -10 4 -5 0 -10
-5 -10 -11z"/>
<path d="M5115 630 c3 -5 8 -10 11 -10 2 0 4 5 4 10 0 6 -5 10 -11 10 -5 0 -7
-4 -4 -10z"/>
<path d="M5900 629 c0 -5 5 -7 10 -4 6 3 10 8 10 11 0 2 -4 4 -10 4 -5 0 -10
-5 -10 -11z"/>
<path d="M5365 600 c3 -5 8 -10 11 -10 2 0 4 5 4 10 0 6 -5 10 -11 10 -5 0 -7
-4 -4 -10z"/>
<path d="M5435 600 c3 -5 8 -10 11 -10 2 0 4 5 4 10 0 6 -5 10 -11 10 -5 0 -7
-4 -4 -10z"/>
<path d="M5580 599 c0 -5 5 -7 10 -4 6 3 10 8 10 11 0 2 -4 4 -10 4 -5 0 -10
-5 -10 -11z"/>
<path d="M5650 599 c0 -5 5 -7 10 -4 6 3 10 8 10 11 0 2 -4 4 -10 4 -5 0 -10
-5 -10 -11z"/>
<path d="M5935 600 c3 -5 8 -10 11 -10 2 0 4 5 4 10 0 6 -5 10 -11 10 -5 0 -7
-4 -4 -10z"/>
<path d="M5115 570 c3 -5 8 -10 11 -10 2 0 4 5 4 10 0 6 -5 10 -11 10 -5 0 -7
-4 -4 -10z"/>
<path d="M5330 569 c0 -5 5 -7 10 -4 6 3 10 8 10 11 0 2 -4 4 -10 4 -5 0 -10
-5 -10 -11z"/>
<path d="M5400 569 c0 -5 5 -7 10 -4 6 3 10 8 10 11 0 2 -4 4 -10 4 -5 0 -10
-5 -10 -11z"/>
<path d="M5470 569 c0 -5 5 -7 10 -4 6 3 10 8 10 11 0 2 -4 4 -10 4 -5 0 -10
-5 -10 -11z"/>
<path d="M5540 570 c0 -5 5 -10 10 -10 6 0 10 5 10 10 0 6 -4 10 -10 10 -5 0
-10 -4 -10 -10z"/>
<path d="M5615 570 c3 -5 8 -10 11 -10 2 0 4 5 4 10 0 6 -5 10 -11 10 -5 0 -7
-4 -4 -10z"/>
<path d="M5685 570 c3 -5 8 -10 11 -10 2 0 4 5 4 10 0 6 -5 10 -11 10 -5 0 -7
-4 -4 -10z"/>
<path d="M5900 569 c0 -5 5 -7 10 -4 6 3 10 8 10 11 0 2 -4 4 -10 4 -5 0 -10
-5 -10 -11z"/>
<path d="M5150 540 c0 -5 5 -10 10 -10 6 0 10 5 10 10 0 6 -4 10 -10 10 -5 0
-10 -4 -10 -10z"/>
<path d="M5220 540 c0 -5 5 -10 10 -10 6 0 10 5 10 10 0 6 -4 10 -10 10 -5 0
-10 -4 -10 -10z"/>
<path d="M5365 540 c3 -5 8 -10 11 -10 2 0 4 5 4 10 0 6 -5 10 -11 10 -5 0 -7
-4 -4 -10z"/>
<path d="M5580 539 c0 -5 5 -7 10 -4 6 3 10 8 10 11 0 2 -4 4 -10 4 -5 0 -10
-5 -10 -11z"/>
<path d="M5650 539 c0 -5 5 -7 10 -4 6 3 10 8 10 11 0 2 -4 4 -10 4 -5 0 -10
-5 -10 -11z"/>
<path d="M5790 540 c0 -5 5 -10 10 -10 6 0 10 5 10 10 0 6 -4 10 -10 10 -5 0
-10 -4 -10 -10z"/>
<path d="M5860 540 c0 -5 5 -10 10 -10 6 0 10 5 10 10 0 6 -4 10 -10 10 -5 0
-10 -4 -10 -10z"/>
<path d="M5930 540 c0 -5 5 -10 10 -10 6 0 10 5 10 10 0 6 -4 10 -10 10 -5 0
-10 -4 -10 -10z"/>
<path d="M5330 510 c0 -5 5 -10 10 -10 6 0 10 5 10 10 0 6 -4 10 -10 10 -5 0
-10 -4 -10 -10z"/>
<path d="M5400 510 c0 -5 5 -10 10 -10 6 0 10 5 10 10 0 6 -4 10 -10 10 -5 0
-10 -4 -10 -10z"/>
<path d="M5470 510 c0 -5 5 -10 10 -10 6 0 10 5 10 10 0 6 -4 10 -10 10 -5 0
-10 -4 -10 -10z"/>
<path d="M5540 510 c0 -5 5 -10 10 -10 6 0 10 5 10 10 0 6 -4 10 -10 10 -5 0
-10 -4 -10 -10z"/>
<path d="M5610 510 c0 -5 5 -10 10 -10 6 0 10 5 10 10 0 6 -4 10 -10 10 -5 0
-10 -4 -10 -10z"/>
<path d="M5685 510 c3 -5 8 -10 11 -10 2 0 4 5 4 10 0 6 -5 10 -11 10 -5 0 -7
-4 -4 -10z"/>
<path d="M5080 480 c0 -5 5 -10 10 -10 6 0 10 5 10 10 0 6 -4 10 -10 10 -5 0
-10 -4 -10 -10z"/>
<path d="M5150 480 c0 -5 5 -10 10 -10 6 0 10 5 10 10 0 6 -4 10 -10 10 -5 0
-10 -4 -10 -10z"/>
<path d="M5365 480 c3 -5 8 -10 11 -10 2 0 4 5 4 10 0 6 -5 10 -11 10 -5 0 -7
-4 -4 -10z"/>
<path d="M5650 479 c0 -5 5 -7 10 -4 6 3 10 8 10 11 0 2 -4 4 -10 4 -5 0 -10
-5 -10 -11z"/>
<path d="M5790 480 c0 -5 5 -10 10 -10 6 0 10 5 10 10 0 6 -4 10 -10 10 -5 0
-10 -4 -10 -10z"/>
<path d="M5860 480 c0 -5 5 -10 10 -10 6 0 10 5 10 10 0 6 -4 10 -10 10 -5 0
-10 -4 -10 -10z"/>
<path d="M5330 450 c0 -5 5 -10 11 -10 5 0 7 5 4 10 -3 6 -8 10 -11 10 -2 0
-4 -4 -4 -10z"/>
<path d="M5400 450 c0 -5 5 -10 10 -10 6 0 10 5 10 10 0 6 -4 10 -10 10 -5 0
-10 -4 -10 -10z"/>
<path d="M5470 450 c0 -5 5 -10 10 -10 6 0 10 5 10 10 0 6 -4 10 -10 10 -5 0
-10 -4 -10 -10z"/>
<path d="M5540 450 c0 -5 5 -10 10 -10 6 0 10 5 10 10 0 6 -4 10 -10 10 -5 0
-10 -4 -10 -10z"/>
<path d="M5610 450 c0 -5 5 -10 10 -10 6 0 10 5 10 10 0 6 -4 10 -10 10 -5 0
-10 -4 -10 -10z"/>
<path d="M5755 450 c-3 -5 -1 -10 4 -10 6 0 11 5 11 10 0 6 -2 10 -4 10 -3 0
-8 -4 -11 -10z"/>
<path d="M5080 420 c0 -5 5 -10 10 -10 6 0 10 5 10 10 0 6 -4 10 -10 10 -5 0
-10 -4 -10 -10z"/>
<path d="M5150 420 c0 -5 5 -10 10 -10 6 0 10 5 10 10 0 6 -4 10 -10 10 -5 0
-10 -4 -10 -10z"/>
<path d="M5365 420 c-3 -5 -1 -10 4 -10 6 0 11 5 11 10 0 6 -2 10 -4 10 -3 0
-8 -4 -11 -10z"/>
<path d="M5435 420 c-3 -5 -1 -10 4 -10 6 0 11 5 11 10 0 6 -2 10 -4 10 -3 0
-8 -4 -11 -10z"/>
<path d="M5580 420 c0 -5 5 -10 11 -10 5 0 7 5 4 10 -3 6 -8 10 -11 10 -2 0
-4 -4 -4 -10z"/>
<path d="M5650 420 c0 -5 5 -10 11 -10 5 0 7 5 4 10 -3 6 -8 10 -11 10 -2 0
-4 -4 -4 -10z"/>
<path d="M5790 420 c0 -5 5 -10 10 -10 6 0 10 5 10 10 0 6 -4 10 -10 10 -5 0
-10 -4 -10 -10z"/>
<path d="M5860 420 c0 -5 5 -10 10 -10 6 0 10 5 10 10 0 6 -4 10 -10 10 -5 0
-10 -4 -10 -10z"/>
<path d="M5045 390 c-3 -5 -1 -10 4 -10 6 0 11 5 11 10 0 6 -2 10 -4 10 -3 0
-8 -4 -11 -10z"/>
<path d="M5115 390 c-3 -5 -1 -10 4 -10 6 0 11 5 11 10 0 6 -2 10 -4 10 -3 0
-8 -4 -11 -10z"/>
<path d="M5330 390 c0 -5 5 -10 11 -10 5 0 7 5 4 10 -3 6 -8 10 -11 10 -2 0
-4 -4 -4 -10z"/>
<path d="M5755 390 c-3 -5 -1 -10 4 -10 6 0 11 5 11 10 0 6 -2 10 -4 10 -3 0
-8 -4 -11 -10z"/>
<path d="M5365 360 c-3 -5 -1 -10 4 -10 6 0 11 5 11 10 0 6 -2 10 -4 10 -3 0
-8 -4 -11 -10z"/>
<path d="M5435 360 c-3 -5 -1 -10 4 -10 6 0 11 5 11 10 0 6 -2 10 -4 10 -3 0
-8 -4 -11 -10z"/>
<path d="M5580 360 c0 -5 5 -10 11 -10 5 0 7 5 4 10 -3 6 -8 10 -11 10 -2 0
-4 -4 -4 -10z"/>
<path d="M770 601 c8 -6 22 -11 31 -11 9 0 27 -8 39 -18 l22 -18 -27 -77 c-15
-42 -39 -89 -52 -103 -22 -24 -29 -26 -71 -20 -43 5 -45 4 -28 -9 11 -8 35
-15 54 -15 46 0 82 38 116 127 41 104 30 133 -59 148 -30 5 -36 4 -25 -4z"/>
<path d="M687 593 c-2 -4 -7 -24 -11 -43 l-6 -35 15 39 c13 35 15 61 2 39z"/>
<path d="M479 563 c-5 -65 -10 -78 -40 -110 -60 -62 -82 -74 -119 -63 -23 7
-30 6 -23 -1 5 -5 25 -12 44 -15 33 -6 39 -2 96 59 56 61 75 96 65 125 -4 13
-22 17 -23 5z"/>
</g>
</svg>
