<svg width="24" height="24" viewBox="0 0 24 24" fill="none" xmlns="http://www.w3.org/2000/svg" class="sc-hpDagy hTEKaC"><path fill-rule="evenodd" clip-rule="evenodd" d="M24 21.96c0 1.14-.9 2.04-2.04 2.04H2.04C.96 24 0 23.04 0 21.96V2.04C0 .96.96 0 2.04 0H21.9c1.2 0 2.1.96 2.1 2.04v19.92z" fill="#000"/><path d="M15.589 11.722a2.873 2.873 0 011.367-2.41 2.94 2.94 0 00-2.316-1.253c-.975-.102-1.92.583-2.416.583-.507 0-1.271-.573-2.095-.556A3.085 3.085 0 007.533 9.67c-1.123 1.943-.285 4.8.79 6.37.538.77 1.167 1.629 1.99 1.599.805-.034 1.105-.514 2.077-.514.963 0 1.245.514 2.085.494.863-.014 1.408-.773 1.927-1.55a6.362 6.362 0 00.881-1.794 2.775 2.775 0 01-1.694-2.553zM14.003 7.026A2.828 2.828 0 0014.65 5c-.72.076-1.384.42-1.861.963a2.691 2.691 0 00-.664 1.951 2.38 2.38 0 001.878-.888z" fill="#fff"/></svg>