<svg width="24" height="24" viewBox="0 0 24 24" fill="none" xmlns="http://www.w3.org/2000/svg" class="sc-hpDagy hTEKaC"><path fill-rule="evenodd" clip-rule="evenodd" d="M24 21.96c0 1.14-.9 2.04-2.04 2.04H2.04C.96 24 0 23.04 0 21.96V2.04C0 .96.96 0 2.04 0H21.9c1.2 0 2.1.96 2.1 2.04v19.92z" fill="#3B5998"/><path fill-rule="evenodd" clip-rule="evenodd" d="M12.723 18v-6.001h1.657l.219-2.068h-1.876l.003-1.035c0-.539.051-.828.826-.828h1.036V6h-1.657c-1.99 0-2.691 1.003-2.691 2.69v1.242H9V12h1.24v6h2.483z" fill="#fff"/></svg>