<svg width="24" height="24" viewBox="0 0 24 24" fill="none" xmlns="http://www.w3.org/2000/svg" class="sc-hpDagy hTEKaC"><path fill-rule="evenodd" clip-rule="evenodd" d="M24 21.96c0 1.14-.9 2.04-2.04 2.04H2.04C.96 24 0 23.04 0 21.96V2.04C0 .96.96 0 2.04 0H21.9c1.2 0 2.1.96 2.1 2.04v19.92z" fill="#FEE500"/><g clip-path="url(#ic_kakao_svg__clip0_990_22)"><path fill-rule="evenodd" clip-rule="evenodd" d="M12.5 6.001c-3.59 0-6.5 2.224-6.5 4.968 0 1.707 1.126 3.21 2.84 4.105l-.723 2.607a.258.258 0 00.105.278.269.269 0 00.302.002l3.161-2.064c.267.025.538.04.814.04 3.59 0 6.5-2.224 6.5-4.968 0-2.743-2.91-4.968-6.5-4.968" fill="#000" fill-opacity="0.9"/></g><defs><clipPath id="ic_kakao_svg__clip0_990_22"><path fill="#fff" transform="translate(6 6)" d="M0 0h13v12H0z"/></clipPath></defs></svg>