<svg width="24" height="24" viewBox="0 0 24 24" fill="none" xmlns="http://www.w3.org/2000/svg" class="sc-hpDagy hTEKaC"><path fill-rule="evenodd" clip-rule="evenodd" d="M24 21.96c0 1.14-.9 2.04-2.04 2.04H2.04C.96 24 0 23.04 0 21.96V2.04C0 .96.96 0 2.04 0H21.9c1.2 0 2.1.96 2.1 2.04v19.92z" fill="#55ACEE"/><path fill-rule="evenodd" clip-rule="evenodd" d="M11.827 9.638l.026.428-.433-.053c-1.578-.2-2.957-.883-4.128-2.03l-.572-.568-.147.42c-.312.936-.113 1.926.537 2.59.347.368.269.42-.33.201-.207-.07-.39-.121-.407-.095-.061.06.147.857.312 1.172.226.438.685.867 1.188 1.122l.425.2-.503.008c-.486 0-.503.01-.451.194.174.569.858 1.172 1.622 1.434l.537.186-.468.279a4.873 4.873 0 01-2.324.649c-.39.008-.711.043-.711.069 0 .088 1.058.578 1.674.77 1.847.57 4.04.325 5.688-.648 1.17-.69 2.34-2.066 2.887-3.396.295-.709.589-2.005.589-2.625 0-.403.027-.456.512-.937.286-.28.556-.587.607-.674.087-.167.078-.167-.364-.018-.737.263-.841.228-.476-.166.268-.28.588-.788.588-.937 0-.026-.13.018-.277.097a4.82 4.82 0 01-.763.297l-.468.149-.425-.29c-.234-.156-.564-.331-.737-.384-.442-.123-1.12-.105-1.517.035-1.084.394-1.77 1.409-1.691 2.52z" fill="#fff"/></svg>